<svg width="14" height="12" viewBox="0 0 14 12" fill="none" xmlns="http://www.w3.org/2000/svg">
<path fill-rule="evenodd" clip-rule="evenodd" d="M7.00005 10.3036L3.87387 11.9137C3.49971 12.1064 3.03693 11.9655 2.84023 11.5989C2.7619 11.453 2.73487 11.2858 2.76332 11.1232L3.36037 7.71286L0.831239 5.29762C0.528537 5.00855 0.522343 4.5338 0.817405 4.23725C0.9349 4.11915 1.08885 4.0423 1.25543 4.01859L4.7506 3.52102L6.31369 0.418164C6.50077 0.0467939 6.95972 -0.105682 7.33879 0.0776005C7.48973 0.150584 7.61191 0.270282 7.68641 0.418164L9.24949 3.52102L12.7447 4.01859C13.163 4.07814 13.4528 4.45865 13.392 4.86848C13.3678 5.03168 13.2894 5.18251 13.1689 5.29762L10.6397 7.71286L11.2368 11.1232C11.3082 11.5314 11.0284 11.919 10.6118 11.9891C10.4459 12.0169 10.2752 11.9905 10.1262 11.9137L7.00005 10.3036Z" fill="#FFBD3D"/>
</svg>
